<svg xmlns="http://www.w3.org/2000/svg" width="1em" height="1em" viewBox="0 0 24 24"><path fill="gray" d="M5.038 19.346q-.213 0-.356-.143t-.144-.357v-1H4q-.846 0-1.423-.577Q2 16.692 2 15.846v-5q0-.633.434-1.066q.433-.434 1.066-.434t1.066.434Q5 10.213 5 10.846v3.5h14v-3.5q0-.633.434-1.066q.433-.434 1.066-.434t1.066.434q.434.433.434 1.066v5q0 .846-.577 1.423q-.577.577-1.423.577h-.538v1q0 .194-.134.347q-.134.153-.328.153q-.213 0-.357-.143q-.143-.143-.143-.357v-1H5.538v1q0 .214-.143.357t-.357.143Zm.962-6v-2.5q0-.933-.559-1.664T4 8.346V7.231q0-.846.577-1.423Q5.154 5.23 6 5.23h12q.846 0 1.423.577Q20 6.385 20 7.23v1.115q-.888.1-1.444.828Q18 9.902 18 10.846v2.5H6Z"/></svg>